<svg xmlns="http://www.w3.org/2000/svg" xmlns:xlink="http://www.w3.org/1999/xlink" viewBox="0 0 51.5 51.5"><defs><style>.cls-1{fill:none;}.cls-2{clip-path:url(#clip-path);}.cls-3{fill:#1877f2;}.cls-4{fill:#fff;}</style><clipPath id="clip-path"><rect class="cls-1" x="0.01" width="51.49" height="51.5"/></clipPath></defs><g id="Livello_2" data-name="Livello 2"><g id="Layer_1" data-name="Layer 1"><g class="cls-2"><path class="cls-3" d="M51.5,25.75A25.75,25.75,0,1,0,21.73,51.19v-18H15.19V25.75h6.54V20.08c0-6.46,3.84-10,9.72-10a39.91,39.91,0,0,1,5.77.5V16.9H34c-3.2,0-4.2,2-4.2,4v4.83h7.15l-1.15,7.44h-6v18A25.76,25.76,0,0,0,51.5,25.75Z"/></g><path class="cls-4" d="M35.77,33.19l1.15-7.44H29.77V20.92c0-2,1-4,4.2-4h3.25V10.56a39.91,39.91,0,0,0-5.77-.5c-5.88,0-9.72,3.56-9.72,10v5.67H15.19v7.44h6.54v18a26.22,26.22,0,0,0,8,0v-18Z"/></g></g></svg>