<?xml version="1.0" encoding="UTF-8" standalone="no"?>
<svg
   viewBox="0 0 121.48 85.04"
   version="1.1"
   id="svg12"
   sodipodi:docname="Youtube.svg"
   inkscape:version="1.1.2 (0a00cf5339, 2022-02-04)"
   xmlns:inkscape="http://www.inkscape.org/namespaces/inkscape"
   xmlns:sodipodi="http://sodipodi.sourceforge.net/DTD/sodipodi-0.dtd"
   xmlns="http://www.w3.org/2000/svg"
   xmlns:svg="http://www.w3.org/2000/svg">
  <sodipodi:namedview
     id="namedview14"
     pagecolor="#ffffff"
     bordercolor="#666666"
     borderopacity="1.0"
     inkscape:pageshadow="2"
     inkscape:pageopacity="0.0"
     inkscape:pagecheckerboard="0"
     showgrid="false"
     inkscape:zoom="7.4082784"
     inkscape:cx="60.742858"
     inkscape:cy="42.385016"
     inkscape:window-width="2560"
     inkscape:window-height="1381"
     inkscape:window-x="0"
     inkscape:window-y="28"
     inkscape:window-maximized="1"
     inkscape:current-layer="Layer_1" />
  <defs
     id="defs4">
    <style
       id="style2">.cls-1{fill:red;}.cls-2{fill:#fff;}</style>
  </defs>
  <g
     id="Livello_2"
     data-name="Livello 2">
    <g
       id="Layer_1"
       data-name="Layer 1">
      <path
         id="path6"
         class="cls-1"
         d="m 60.740234,0 c 0,0 -38.000937,-9.375e-4 -47.460937,2.5390625 A 15.21,15.21 0 0 0 2.5390625,13.279297 C -9.375e-4,22.749297 0,42.519531 0,42.519531 c 0,0 -9.375e-4,19.770235 2.5390625,29.240235 A 15.21,15.21 0 0 0 13.279297,82.5 c 9.47,2.5 47.460937,2.5 47.460937,2.5 0,0 38.000703,9.38e-4 47.470706,-2.539062 A 15.23,15.23 0 0 0 119,71.759766 c 2.53,-9.47 2.5293,-29.240235 2.5293,-29.240235 0,0 -0.0493,-19.770234 -2.5293,-29.240234 A 15.23,15.23 0 0 0 108.21094,2.5390625 C 98.730938,-9.375e-4 60.740234,0 60.740234,0 Z m -12.15039,24.300781 31.570312,18.21875 -31.570312,18.220703 z" />
    </g>
  </g>
</svg>
