<svg xmlns="http://www.w3.org/2000/svg" viewBox="0 0 88.42 88.42"><defs><style>.cls-1{fill:#12100b;}</style></defs><g id="Livello_2" data-name="Livello 2"><g id="Layer_1" data-name="Layer 1"><path class="cls-1" d="M44.21,0C32.2,0,30.7.05,26,.27A32.43,32.43,0,0,0,15.25,2.32a21.64,21.64,0,0,0-7.83,5.1,21.64,21.64,0,0,0-5.1,7.83A32.43,32.43,0,0,0,.27,26C.05,30.7,0,32.2,0,44.21S.05,57.72.27,62.44A32.43,32.43,0,0,0,2.32,73.17,21.64,21.64,0,0,0,7.42,81a21.64,21.64,0,0,0,7.83,5.1A32.43,32.43,0,0,0,26,88.15c4.72.22,6.22.27,18.23.27s13.51,0,18.23-.27A32.43,32.43,0,0,0,73.17,86.1,22.62,22.62,0,0,0,86.1,73.17a32.43,32.43,0,0,0,2.05-10.73c.22-4.72.27-6.22.27-18.23s0-13.51-.27-18.23A32.43,32.43,0,0,0,86.1,15.25,21.64,21.64,0,0,0,81,7.42a21.64,21.64,0,0,0-7.83-5.1,32.43,32.43,0,0,0-10.73-2C57.72.05,56.22,0,44.21,0Zm0,8c11.8,0,13.2,0,17.86.25a24.28,24.28,0,0,1,8.21,1.53,13.74,13.74,0,0,1,5.09,3.3,13.74,13.74,0,0,1,3.3,5.09,24.34,24.34,0,0,1,1.53,8.21c.21,4.66.25,6.06.25,17.86s0,13.2-.25,17.87a24.26,24.26,0,0,1-1.53,8.2,14.54,14.54,0,0,1-8.39,8.39,24.28,24.28,0,0,1-8.21,1.53c-4.66.21-6,.25-17.86.25s-13.2,0-17.86-.25a24.34,24.34,0,0,1-8.21-1.53,13.74,13.74,0,0,1-5.09-3.3,13.74,13.74,0,0,1-3.3-5.09,24.26,24.26,0,0,1-1.53-8.2C8,57.41,8,56,8,44.21S8,31,8.22,26.35a24.34,24.34,0,0,1,1.53-8.21,13.74,13.74,0,0,1,3.3-5.09,13.74,13.74,0,0,1,5.09-3.3,24.34,24.34,0,0,1,8.21-1.53C31,8,32.41,8,44.21,8" transform="translate(0 0)"/><path class="cls-1" d="M44.21,59A14.74,14.74,0,1,1,59,44.21,14.74,14.74,0,0,1,44.21,59Zm0-37.44a22.7,22.7,0,1,0,22.7,22.7,22.7,22.7,0,0,0-22.7-22.7Z" transform="translate(0 0)"/><path class="cls-1" d="M73.12,20.61a5.31,5.31,0,1,1-5.31-5.3,5.31,5.31,0,0,1,5.31,5.3Z" transform="translate(0 0)"/></g></g></svg>