<?xml version="1.0" encoding="UTF-8" standalone="no"?>
<!-- Created with Inkscape (http://www.inkscape.org/) -->

<svg
   width="70.828957mm"
   height="15.08125mm"
   viewBox="0 0 70.828957 15.08125"
   version="1.1"
   id="svg1453"
   inkscape:version="1.1.2 (0a00cf5339, 2022-02-04)"
   sodipodi:docname="LogoB.svg"
   xmlns:inkscape="http://www.inkscape.org/namespaces/inkscape"
   xmlns:sodipodi="http://sodipodi.sourceforge.net/DTD/sodipodi-0.dtd"
   xmlns="http://www.w3.org/2000/svg"
   xmlns:svg="http://www.w3.org/2000/svg">
  <sodipodi:namedview
     id="namedview1455"
     pagecolor="#ffffff"
     bordercolor="#666666"
     borderopacity="1.0"
     inkscape:pageshadow="2"
     inkscape:pageopacity="0.0"
     inkscape:pagecheckerboard="0"
     inkscape:document-units="mm"
     showgrid="false"
     fit-margin-top="0"
     fit-margin-left="0"
     fit-margin-right="0"
     fit-margin-bottom="0"
     inkscape:zoom="4.0037506"
     inkscape:cx="137.62096"
     inkscape:cy="52.450819"
     inkscape:window-width="2560"
     inkscape:window-height="1381"
     inkscape:window-x="0"
     inkscape:window-y="28"
     inkscape:window-maximized="1"
     inkscape:current-layer="layer1" />
  <defs
     id="defs1450" />
  <g
     inkscape:label="Livello 1"
     inkscape:groupmode="layer"
     id="layer1"
     transform="translate(-47.120189,-78.700936)">
    <g
       id="g86"
       transform="matrix(0.26458333,0,0,0.26458333,10.739981,59.227603)"
       style="fill:#f9f9f9;fill-opacity:1;stroke-width:1.00157;stroke-miterlimit:4;stroke-dasharray:none">
      <path
         class="st2"
         d="m 223.4,107.7 -0.2,-3.1 9.5,-1.4 c -0.1,-0.9 -0.4,-1.7 -1,-2.3 -0.6,-0.7 -1.5,-1 -2.7,-1 -1.2,0 -2.2,0.4 -3,1.3 -0.8,0.8 -1.2,2 -1.2,3.6 l 0.1,1.8 c 0.2,1.5 0.8,2.6 1.8,3.3 1,0.7 2.2,1.1 3.6,1.1 1,0 1.9,-0.1 2.8,-0.4 0.9,-0.3 1.5,-0.6 2,-1 0.3,0.2 0.6,0.5 0.8,0.8 0.2,0.3 0.3,0.7 0.3,1 0,0.6 -0.3,1.1 -0.8,1.6 -0.5,0.4 -1.3,0.8 -2.2,1 -0.9,0.2 -2,0.4 -3.2,0.4 -1.8,0 -3.4,-0.3 -4.8,-1 -1.4,-0.7 -2.5,-1.7 -3.3,-3 -0.8,-1.3 -1.2,-3 -1.2,-5 0,-1.4 0.2,-2.7 0.7,-3.8 0.4,-1.1 1.1,-2 1.8,-2.7 0.8,-0.7 1.7,-1.3 2.7,-1.6 1,-0.4 2.1,-0.6 3.2,-0.6 1.6,0 2.9,0.3 4.1,0.9 1.2,0.6 2.1,1.5 2.8,2.6 0.7,1.1 1,2.4 1,3.8 0,0.7 -0.2,1.2 -0.5,1.5 -0.3,0.3 -0.8,0.5 -1.4,0.6 z"
         id="path56"
         style="fill:#f9f9f9;fill-opacity:1;stroke-width:1.00157;stroke-miterlimit:4;stroke-dasharray:none" />
      <path
         class="st2"
         d="m 263.8,105.5 h -4.4 V 92.7 c 0.2,-0.1 0.5,-0.1 0.8,-0.2 0.4,-0.1 0.8,-0.1 1.2,-0.1 0.8,0 1.4,0.1 1.8,0.4 0.4,0.3 0.6,0.8 0.6,1.6 z m -4.4,-1 h 4.4 v 4.2 c 0,0.8 0.2,1.3 0.7,1.7 0.5,0.3 1.1,0.5 2,0.5 0.4,0 0.8,0 1.2,-0.1 0.4,-0.1 0.8,-0.2 1.1,-0.4 0.2,0.2 0.3,0.4 0.5,0.7 0.1,0.3 0.2,0.6 0.2,1 0,0.7 -0.3,1.3 -1,1.7 -0.7,0.4 -1.7,0.7 -3,0.7 -1.9,0 -3.3,-0.4 -4.4,-1.3 -1.1,-0.8 -1.6,-2.2 -1.6,-4.1 v -4.6 z m 2.6,-3.6 v -3.4 h 7 c 0.1,0.2 0.2,0.4 0.3,0.7 0.1,0.3 0.2,0.6 0.2,1 0,0.6 -0.1,1 -0.4,1.3 -0.3,0.3 -0.7,0.4 -1.1,0.4 z"
         id="path58"
         style="fill:#f9f9f9;fill-opacity:1;stroke-width:1.00157;stroke-miterlimit:4;stroke-dasharray:none" />
      <path
         class="st2"
         d="m 287.9,113 c 1.5,0 3,-0.4 3.8,-1 0.7,-0.6 1.1,-1.2 1.1,-2.1 0,-0.8 -0.2,-1.7 -0.8,-2.2 -0.6,-0.5 -1.4,-0.9 -2.5,-1.3 l -2.9,-0.8 c -1.3,-0.4 -2.4,-0.9 -3.4,-1.5 -1,-0.5 -1.7,-1.2 -2.2,-2.1 -0.5,-0.9 -0.8,-1.9 -0.8,-3.2 0,-2.1 0.8,-3.7 2.3,-4.9 1.6,-1.2 3.7,-1.8 6.4,-1.8 1.4,0 2.7,0.1 3.8,0.4 1.1,0.3 2,0.7 2.7,1.2 0.7,0.5 1,1.1 1,1.8 0,0.5 -0.1,0.9 -0.4,1.3 -0.2,0.4 -0.6,0.6 -0.8,0.7 -0.6,-0.4 -1.4,-0.8 -2.4,-1.1 -1,-0.3 -2.1,-0.5 -3.3,-0.5 -1.3,0 -2.6,0.3 -3.3,0.7 -0.7,0.5 -1.2,1.4 -1.2,2.2 0,0.7 0.2,1.2 0.7,1.6 0.5,0.4 1.5,0.8 2.6,1.1 l 2.2,0.7 c 2.2,0.7 3.9,1.6 5.2,2.7 1.2,1.1 1.8,2.7 1.8,4.7 0,2.1 -0.8,3.8 -2.4,5.1 -1.6,1.3 -3.9,2 -6.9,2 -1.6,0 -2.9,-0.2 -4.2,-0.5 -1.2,-0.3 -2.2,-0.8 -2.9,-1.4 -0.7,-0.6 -1.1,-1.3 -1.1,-2 0,-0.6 0.2,-1.1 0.5,-1.5 0.4,-0.4 0.8,-0.6 1.1,-0.7 0.7,0.6 1.5,1.1 2.6,1.6 1,0.6 2.3,0.8 3.7,0.8 z"
         id="path60"
         style="fill:#f9f9f9;fill-opacity:1;stroke-width:1.00157;stroke-miterlimit:4;stroke-dasharray:none" />
      <path
         class="st2"
         d="m 309.6,100 c -1.4,0 -2.6,0.5 -3.6,1.4 -1,0.9 -1.4,2.3 -1.4,4 0,1.8 0.5,3.1 1.4,4 0.9,0.9 2.1,1.3 3.6,1.3 0.9,0 1.6,-0.1 2.2,-0.3 0.6,-0.2 1.1,-0.5 1.6,-0.7 0.4,0.2 0.6,0.5 0.8,0.8 0.2,0.3 0.3,0.7 0.3,1.1 0,0.8 -0.5,1.5 -1.5,2 -1,0.5 -2.2,0.8 -3.8,0.8 -1.8,0 -3.4,-0.3 -4.7,-1 -1.4,-0.7 -2.4,-1.6 -3.2,-3 -0.8,-1.3 -1.2,-3 -1.2,-4.9 0,-2 0.4,-3.7 1.2,-5 0.8,-1.3 1.9,-2.3 3.3,-3 1.4,-0.7 2.9,-1 4.5,-1 1.6,0 2.8,0.3 3.8,0.8 0.9,0.5 1.4,1.2 1.4,2 0,0.4 -0.1,0.7 -0.3,1 -0.2,0.3 -0.4,0.6 -0.7,0.7 -0.5,-0.3 -1,-0.5 -1.6,-0.7 -0.5,-0.2 -1.2,-0.3 -2.1,-0.3 z"
         id="path62"
         style="fill:#f9f9f9;fill-opacity:1;stroke-width:1.00157;stroke-miterlimit:4;stroke-dasharray:none" />
      <path
         class="st2"
         d="m 317.9,92 c 0,-0.7 0.2,-1.3 0.7,-1.7 0.5,-0.5 1.1,-0.7 1.8,-0.7 0.8,0 1.4,0.2 1.8,0.7 0.5,0.5 0.7,1.1 0.7,1.7 0,0.7 -0.2,1.2 -0.7,1.7 -0.5,0.5 -1.1,0.7 -1.8,0.7 -0.7,0 -1.3,-0.2 -1.8,-0.7 -0.4,-0.5 -0.7,-1.1 -0.7,-1.7 z m 4.8,14.6 h -4.4 v -9.5 c 0.2,-0.1 0.5,-0.1 0.8,-0.2 0.4,-0.1 0.8,-0.1 1.2,-0.1 0.8,0 1.4,0.1 1.8,0.4 0.4,0.3 0.6,0.8 0.6,1.6 z m -4.4,-2.2 h 4.4 v 9.3 c -0.2,0.1 -0.5,0.1 -0.8,0.2 -0.4,0.1 -0.7,0.1 -1.2,0.1 -0.8,0 -1.4,-0.1 -1.8,-0.4 -0.4,-0.3 -0.6,-0.8 -0.6,-1.6 z"
         id="path64"
         style="fill:#f9f9f9;fill-opacity:1;stroke-width:1.00157;stroke-miterlimit:4;stroke-dasharray:none" />
      <path
         class="st2"
         d="m 329.3,107.6 -0.2,-3.1 9.5,-1.4 c -0.1,-0.9 -0.4,-1.7 -1,-2.3 -0.6,-0.7 -1.5,-1 -2.7,-1 -1.2,0 -2.2,0.4 -3,1.3 -0.8,0.8 -1.2,2 -1.2,3.6 l 0.1,1.8 c 0.2,1.5 0.8,2.6 1.8,3.3 1,0.7 2.2,1.1 3.6,1.1 1,0 1.9,-0.1 2.8,-0.4 0.9,-0.3 1.5,-0.6 2,-1 0.3,0.2 0.6,0.5 0.8,0.8 0.2,0.3 0.3,0.7 0.3,1 0,0.6 -0.3,1.1 -0.8,1.6 -0.5,0.4 -1.3,0.8 -2.2,1 -0.9,0.2 -2,0.4 -3.2,0.4 -1.8,0 -3.4,-0.3 -4.8,-1 -1.4,-0.7 -2.5,-1.7 -3.3,-3 -0.8,-1.3 -1.2,-3 -1.2,-5 0,-1.4 0.2,-2.7 0.7,-3.8 0.4,-1.1 1.1,-2 1.8,-2.7 0.8,-0.7 1.7,-1.3 2.7,-1.6 1,-0.4 2.1,-0.6 3.2,-0.6 1.6,0 2.9,0.3 4.1,0.9 1.2,0.6 2.1,1.5 2.8,2.6 0.7,1.1 1,2.4 1,3.8 0,0.7 -0.2,1.2 -0.5,1.5 -0.3,0.3 -0.8,0.5 -1.4,0.6 z"
         id="path66"
         style="fill:#f9f9f9;fill-opacity:1;stroke-width:1.00157;stroke-miterlimit:4;stroke-dasharray:none" />
      <path
         class="st2"
         d="m 361.8,102.8 v 3.4 h -4.4 V 103 c 0,-1 -0.3,-1.8 -0.9,-2.3 -0.6,-0.5 -1.4,-0.7 -2.4,-0.7 -0.7,0 -1.4,0.1 -2,0.3 -0.6,0.2 -1.1,0.4 -1.5,0.6 v 5.4 h -4.4 v -5.7 c 0,-0.6 0.1,-1 0.4,-1.4 0.2,-0.4 0.6,-0.7 1.1,-1 0.7,-0.5 1.6,-0.9 2.8,-1.2 1.1,-0.3 2.4,-0.5 3.7,-0.5 2.4,0 4.3,0.5 5.6,1.6 1.4,1 2,2.6 2,4.7 z m -15.5,1.7 h 4.4 v 9.2 c -0.2,0.1 -0.5,0.1 -0.8,0.2 -0.4,0.1 -0.7,0.1 -1.2,0.1 -0.8,0 -1.4,-0.1 -1.8,-0.4 -0.4,-0.3 -0.6,-0.8 -0.6,-1.6 z m 11.2,0 h 4.4 v 9.2 c -0.2,0.1 -0.4,0.1 -0.8,0.2 -0.4,0.1 -0.8,0.1 -1.2,0.1 -0.8,0 -1.4,-0.1 -1.8,-0.4 -0.4,-0.3 -0.6,-0.8 -0.6,-1.6 z"
         id="path68"
         style="fill:#f9f9f9;fill-opacity:1;stroke-width:1.00157;stroke-miterlimit:4;stroke-dasharray:none" />
      <path
         class="st2"
         d="m 375.1,100 c -1.4,0 -2.6,0.5 -3.6,1.4 -1,0.9 -1.4,2.3 -1.4,4 0,1.8 0.5,3.1 1.4,4 0.9,0.9 2.1,1.3 3.6,1.3 0.9,0 1.6,-0.1 2.2,-0.3 0.6,-0.2 1.1,-0.5 1.6,-0.7 0.4,0.2 0.6,0.5 0.8,0.8 0.2,0.3 0.3,0.7 0.3,1.1 0,0.8 -0.5,1.5 -1.5,2 -1,0.5 -2.2,0.8 -3.8,0.8 -1.8,0 -3.4,-0.3 -4.7,-1 -1.4,-0.7 -2.4,-1.6 -3.2,-3 -0.8,-1.3 -1.2,-3 -1.2,-4.9 0,-2 0.4,-3.7 1.2,-5 0.8,-1.3 1.9,-2.3 3.3,-3 1.4,-0.7 2.9,-1 4.5,-1 1.6,0 2.8,0.3 3.8,0.8 0.9,0.5 1.4,1.2 1.4,2 0,0.4 -0.1,0.7 -0.3,1 -0.2,0.3 -0.4,0.6 -0.7,0.7 -0.5,-0.3 -1,-0.5 -1.6,-0.7 -0.6,-0.2 -1.3,-0.3 -2.1,-0.3 z"
         id="path70"
         style="fill:#f9f9f9;fill-opacity:1;stroke-width:1.00157;stroke-miterlimit:4;stroke-dasharray:none" />
      <path
         class="st2"
         d="m 385,107.6 -0.2,-3.1 9.5,-1.4 c -0.1,-0.9 -0.4,-1.7 -1,-2.3 -0.6,-0.7 -1.5,-1 -2.7,-1 -1.2,0 -2.2,0.4 -3,1.3 -0.8,0.8 -1.2,2 -1.2,3.6 l 0.1,1.8 c 0.2,1.5 0.8,2.6 1.8,3.3 1,0.7 2.2,1.1 3.6,1.1 1,0 1.9,-0.1 2.8,-0.4 0.9,-0.3 1.5,-0.6 2,-1 0.3,0.2 0.6,0.5 0.8,0.8 0.2,0.3 0.3,0.7 0.3,1 0,0.6 -0.3,1.1 -0.8,1.6 -0.5,0.4 -1.3,0.8 -2.2,1 -0.9,0.2 -2,0.4 -3.2,0.4 -1.8,0 -3.4,-0.3 -4.8,-1 -1.4,-0.7 -2.5,-1.7 -3.3,-3 -0.8,-1.3 -1.2,-3 -1.2,-5 0,-1.4 0.2,-2.7 0.7,-3.8 0.4,-1.1 1.1,-2 1.8,-2.7 0.8,-0.7 1.7,-1.3 2.7,-1.6 1,-0.4 2.1,-0.6 3.2,-0.6 1.6,0 2.9,0.3 4.1,0.9 1.2,0.6 2.1,1.5 2.8,2.6 0.7,1.1 1,2.4 1,3.8 0,0.7 -0.2,1.2 -0.5,1.5 -0.3,0.3 -0.8,0.5 -1.4,0.6 z"
         id="path72"
         style="fill:#f9f9f9;fill-opacity:1;stroke-width:1.00157;stroke-miterlimit:4;stroke-dasharray:none" />
      <g
         id="g78"
         style="fill:#f9f9f9;fill-opacity:1;stroke-width:1.00157;stroke-miterlimit:4;stroke-dasharray:none">
        <path
           class="st2"
           d="m 168.3,109.4 c 1.5,-0.7 2.9,-1.5 4.2,-2.6 1.3,-1.1 2.4,-2.5 3.2,-4.2 0.8,-1.7 1.2,-3.7 1.2,-5.8 0,-2.8 -0.6,-5.2 -1.8,-7.2 -1.2,-2 -2.7,-3 -4.5,-3 -1.4,0 -2.6,0.3 -3.6,1 -1,0.7 -1.7,1.5 -2.2,2.5 -0.5,0.9 -0.9,2.2 -1.1,3.9 -0.2,1.6 -0.4,3.1 -0.4,4.3 -0.1,1.3 -0.1,2.8 0,4.7 0,0.1 0.1,2.7 0.2,7.9 1.7,-0.3 3.3,-0.8 4.8,-1.5 z"
           id="path74"
           style="fill:#f9f9f9;fill-opacity:1;stroke-width:1.00157;stroke-miterlimit:4;stroke-dasharray:none" />
        <path
           class="st2"
           d="m 166,73.6 c -15.7,0 -28.5,12.7 -28.5,28.5 0,13.2 9,24.3 21.2,27.5 v -13 c -4.6,-0.5 -8.6,-2.3 -12.1,-5.4 -3.4,-3.1 -5.1,-6.9 -5.1,-11.3 0,-3.9 1.6,-7.8 4.7,-11.6 3.1,-3.8 5.3,-5.6 7.6,-5.6 1.3,0 1.9,0 3.5,0.7 1.6,0.6 2.4,1.3 2.4,2.2 -2,0.5 -5.1,2.3 -8.6,5.5 -3.6,3.2 -5.4,6.8 -5.4,10.6 0,3.2 1.1,5.6 3.3,7.4 2.2,1.7 5.3,2.6 9.1,2.6 0.2,0 0.4,0 0.6,0 V 105 c 0,-7.8 0.8,-13.5 2.3,-17 1.5,-3.5 4,-5.3 7.5,-5.3 3.3,0 6.3,1.7 8.8,5.2 2.6,3.5 3.8,7.5 3.8,12 0,2.3 -0.6,4.4 -1.7,6.4 -1.1,2 -2.5,3.8 -4.3,5.1 -1.7,1.4 -3.6,2.5 -5.6,3.4 -2,0.9 -4,1.5 -6,1.8 0.1,2.7 0.3,5.8 0.7,9.1 0.2,2.2 0.4,4.1 0.7,4.9 0,0 0,0 0,0 0.3,0 0.7,0 1,0 15.7,0 28.5,-12.7 28.5,-28.5 0,-15.8 -12.7,-28.5 -28.4,-28.5 z"
           id="path76"
           style="fill:#f9f9f9;fill-opacity:1;stroke-width:1.00157;stroke-miterlimit:4;stroke-dasharray:none" />
      </g>
      <path
         class="st2"
         d="m 217.3,114.7 c 0,0 0,0 0,0 0,-0.6 -0.1,-1.5 -0.2,-2.6 -0.1,-1.1 -0.2,-3.4 -0.3,-4.8 -0.1,-1.3 -0.2,-2.7 -0.3,-4.1 -0.1,-1.4 -0.2,-2.8 -0.4,-4 -0.1,-1.3 -0.2,-2.4 -0.3,-3.4 -0.1,-1 -0.2,-1.7 -0.3,-2.1 -0.1,-0.5 -0.4,-0.9 -1,-1.2 -0.5,-0.3 -1.2,-0.4 -2,-0.4 -0.5,0 -0.9,0 -1.4,0.1 -0.4,0.1 -0.8,0.2 -1.1,0.4 -0.6,1.4 -1.3,3.2 -2.1,5.3 -0.8,2.1 -1.6,4.3 -2.4,6.5 h -0.2 c -0.4,-1.1 -0.8,-2.2 -1.3,-3.5 -0.5,-1.2 -0.9,-2.5 -1.4,-3.7 -0.5,-1.2 -1,-2.3 -1.4,-3.3 -0.3,-0.6 -0.7,-1.1 -1.2,-1.4 -0.5,-0.3 -1.3,-0.5 -2.1,-0.5 -0.4,0 -0.7,0 -1,0.1 l 2,5.1 v 0 c 0.4,1.2 1,2.7 1.7,4.5 0.7,1.8 1.5,3.8 2.5,6.2 0.1,0.4 0.4,0.7 0.8,0.9 0.4,0.2 0.9,0.2 1.5,0.2 0.5,0 0.9,-0.1 1.3,-0.2 0.4,-0.1 0.7,-0.3 0.9,-0.5 1,-2.7 1.9,-5 2.6,-6.7 0.7,-1.7 1.2,-3.2 1.6,-4.3 h 0.2 c 0,1.1 0.1,2.4 0.2,3.9 0.1,1.6 0.1,3.3 0.2,5.2 0,0.4 0,0.9 0.1,1.4 v 0 c 0.1,1.9 0.3,5 0.4,7 0,0.7 0.3,1.1 0.7,1.4 0.4,0.2 1,0.4 1.6,0.4 0.5,0 0.9,0 1.2,-0.1 0.3,-0.1 0.7,-0.2 1,-0.4 0,-0.4 -0.1,-0.8 -0.1,-1.4 z"
         id="path80"
         style="fill:#f9f9f9;fill-opacity:1;stroke-width:1.00157;stroke-miterlimit:4;stroke-dasharray:none" />
      <path
         class="st2"
         d="m 400.2,114.3 c 0,-0.7 0.2,-1.3 0.7,-1.7 0.5,-0.5 1.1,-0.7 1.8,-0.7 0.8,0 1.4,0.2 1.8,0.7 0.5,0.5 0.7,1.1 0.7,1.7 0,0.7 -0.2,1.2 -0.7,1.7 -0.5,0.5 -1.1,0.7 -1.8,0.7 -0.7,0 -1.3,-0.2 -1.8,-0.7 -0.5,-0.4 -0.7,-1 -0.7,-1.7 z"
         id="path82"
         style="fill:#f9f9f9;fill-opacity:1;stroke-width:1.00157;stroke-miterlimit:4;stroke-dasharray:none" />
      <path
         class="st2"
         d="m 241.5,106.1 c -0.6,-0.1 -1.1,-0.3 -1.4,-0.6 -0.3,-0.3 -0.5,-0.8 -0.5,-1.5 0,-1.4 0.3,-2.7 1,-3.8 0.7,-1.1 1.6,-2 2.8,-2.6 1.2,-0.6 2.5,-0.9 4.1,-0.9 1.1,0 2.2,0.2 3.2,0.6 1,0.4 1.9,0.9 2.7,1.6 0.8,0.7 1.4,1.6 1.8,2.7 0.4,1.1 0.7,2.4 0.7,3.8 0,2 -0.4,3.7 -1.2,5 -0.8,1.3 -1.9,2.4 -3.3,3 -1.4,0.7 -3,1 -4.8,1 -1.2,0 -2.2,-0.1 -3.2,-0.4 -0.9,-0.2 -1.7,-0.6 -2.2,-1 -0.5,-0.4 -0.8,-1 -0.8,-1.6 0,-0.4 0.1,-0.7 0.3,-1 0.2,-0.3 0.5,-0.6 0.8,-0.8 0.5,0.4 1.2,0.7 2,1 0.9,0.3 1.8,0.4 2.8,0.4 1.5,0 2.7,-0.4 3.6,-1.1 0.9,-0.7 1.5,-1.8 1.8,-3.3 l 0.1,-1.8 c 0,-1.6 -0.4,-2.8 -1.2,-3.6 -0.8,-0.8 -1.8,-1.3 -3,-1.3 -1.2,0 -2.1,0.3 -2.7,1 -0.6,0.7 -1,1.4 -1,2.3 l 9.5,1.4 -0.2,3.1 z"
         id="path84"
         style="fill:#f9f9f9;fill-opacity:1;stroke-width:1.00157;stroke-miterlimit:4;stroke-dasharray:none" />
    </g>
  </g>
</svg>
